<svg width="25" height="25" viewBox="0 0 25 25" fill="none" xmlns="http://www.w3.org/2000/svg">
<g clip-path="url(#clip0_45_1161)">
<path d="M12.5 7.37305C9.673 7.37305 7.37305 9.673 7.37305 12.5C7.37305 15.327 9.673 17.627 12.5 17.627C15.327 17.627 17.627 15.327 17.627 12.5C17.627 9.673 15.327 7.37305 12.5 7.37305ZM12.5 16.1621C10.4807 16.1621 8.83789 14.5193 8.83789 12.5C8.83789 10.4807 10.4807 8.83789 12.5 8.83789C14.5193 8.83789 16.1621 10.4807 16.1621 12.5C16.1621 14.5193 14.5193 16.1621 12.5 16.1621Z" fill="#262626"/>
<path d="M24.9028 12.1339L19.019 1.94287C18.8882 1.71626 18.6464 1.57666 18.3847 1.57666H6.61715C6.35548 1.57666 6.11368 1.71626 5.98287 1.94287L0.0990845 12.1339C-0.0317261 12.3605 -0.0317261 12.6397 0.0990845 12.8663L5.98287 23.0573C6.11368 23.2839 6.35548 23.4235 6.61715 23.4235H18.3847C18.6464 23.4235 18.8882 23.2839 19.019 23.0573L24.9028 12.8663C25.0336 12.6397 25.0336 12.3605 24.9028 12.1339ZM17.9619 3.0415L19.2773 5.31978L16.51 5.87319L13.805 4.52075C13.7398 4.48809 13.6699 4.46538 13.5979 4.45337L11.0019 4.0207L10.4143 3.04146H17.9619V3.0415ZM4.64962 17.8184L2.00192 13.2325H3.83395L4.91198 14.6699L4.64962 17.8184ZM9.40441 21.9587L10.4383 20.1494L14.901 20.9607L15.3002 21.9587H9.40441ZM17.9619 21.9587H16.8779L16.1107 20.0406C16.0171 19.8065 15.8096 19.6371 15.5616 19.592L10.1906 18.6154C9.88507 18.5599 9.5777 18.703 9.42365 18.9727L7.71735 21.9587H7.04L5.93414 20.0433L6.39489 14.5141C6.40978 14.3353 6.35856 14.1573 6.25094 14.0138L4.7861 12.0606C4.64777 11.8762 4.43068 11.7677 4.20016 11.7677H2.00192L7.04 3.0415H8.70602L9.91974 5.0644C10.0301 5.24844 10.2157 5.37476 10.4274 5.41001L13.2484 5.88018L16.0796 7.29575C16.2253 7.3686 16.3911 7.39077 16.5508 7.35884L20.0504 6.65889L23.4228 12.5001L17.9619 21.9587Z" fill="#262626"/>
</g>
<defs>
<clipPath id="clip0_45_1161">
<rect width="25" height="25" fill="white"/>
</clipPath>
</defs>
</svg>
