<svg width="25" height="25" viewBox="0 0 25 25" fill="none" xmlns="http://www.w3.org/2000/svg">
<g clip-path="url(#clip0_45_1167)">
<path d="M22.0396 7.94956C22.0396 6.47564 21.3101 5.35859 20.4974 4.25015L17.164 0L13.845 4.2311L13.8306 4.2501C13.6114 4.54902 13.3984 4.84863 13.204 5.15562L11.3845 2.83584L5.71699 10.0608L5.70259 10.0798C4.25781 12.0503 2.96094 14.0299 2.96094 16.5763C2.96094 21.21 6.72168 24.9818 11.3512 24.9998L11.3855 25C16.0297 25 19.808 21.2212 19.808 16.5765C19.808 15.0859 19.3632 13.7896 18.7049 12.5756C20.6405 11.9293 22.0396 10.0999 22.0396 7.94956ZM11.4172 23.5331L11.3845 23.5331C7.54853 23.5331 4.42778 20.4123 4.42778 16.5764C4.42778 14.4743 5.53701 12.787 6.87847 10.9567L11.3845 5.21255L12.4936 6.62642C12.3641 7.03828 12.2883 7.47534 12.2883 7.94951C12.2883 10.6273 14.4584 12.8079 17.1322 12.8251L17.1608 12.8253C17.8655 14.0022 18.3412 15.2005 18.3412 16.5765C18.3412 20.4019 15.2381 23.516 11.4172 23.5331ZM17.1829 11.3583H17.1639C15.2843 11.3583 13.7551 9.82915 13.7551 7.94946C13.7551 6.91919 14.2969 6.09526 15.0064 5.127L17.164 2.37661L19.3215 5.127C20.031 6.09526 20.5729 6.91929 20.5729 7.94956C20.5728 9.82314 19.0539 11.3485 17.1829 11.3583Z" fill="#262626"/>
</g>
<defs>
<clipPath id="clip0_45_1167">
<rect width="25" height="25" fill="white"/>
</clipPath>
</defs>
</svg>
